<svg width="180" height="140" viewBox="0 0 180 140" fill="none" xmlns="http://www.w3.org/2000/svg">
<path d="M2.64205 7.18182H5.79545L13.2102 25.2926H13.4659L20.8807 7.18182H24.0341V29H21.5625V12.4233H21.3494L14.5312 29H12.1449L5.3267 12.4233H5.11364V29H2.64205V7.18182ZM39.3031 22.3097V12.6364H41.8173V29H39.3031V26.2301H39.1326C38.7491 27.0611 38.1525 27.7678 37.3429 28.3501C36.5332 28.9254 35.5105 29.2131 34.2747 29.2131C33.252 29.2131 32.3429 28.9893 31.5474 28.5419C30.752 28.0874 30.127 27.4055 29.6724 26.4964C29.2179 25.5803 28.9906 24.4261 28.9906 23.0341V12.6364H31.5048V22.8636C31.5048 24.0568 31.8386 25.0085 32.5062 25.7188C33.1809 26.429 34.0403 26.7841 35.0843 26.7841C35.7093 26.7841 36.345 26.6243 36.9913 26.3047C37.6447 25.9851 38.1916 25.495 38.6319 24.8345C39.0794 24.174 39.3031 23.3324 39.3031 22.3097ZM58.0131 16.3011L55.7546 16.9403C55.6126 16.5639 55.4031 16.1982 55.1261 15.843C54.8562 15.4808 54.4869 15.1825 54.0181 14.9482C53.5494 14.7138 52.9492 14.5966 52.2177 14.5966C51.2163 14.5966 50.3817 14.8274 49.7141 15.2891C49.0536 15.7436 48.7234 16.3224 48.7234 17.0256C48.7234 17.6506 48.9506 18.1442 49.4052 18.5064C49.8597 18.8686 50.57 19.1705 51.5359 19.4119L53.9648 20.0085C55.4279 20.3636 56.5181 20.907 57.2354 21.6385C57.9528 22.3629 58.3114 23.2969 58.3114 24.4403C58.3114 25.3778 58.0415 26.2159 57.5018 26.9545C56.9691 27.6932 56.2234 28.2756 55.2646 28.7017C54.3058 29.1278 53.1907 29.3409 51.9194 29.3409C50.2504 29.3409 48.869 28.9787 47.7752 28.2543C46.6815 27.5298 45.989 26.4716 45.6978 25.0795L48.0842 24.483C48.3114 25.3636 48.7411 26.0241 49.3732 26.4645C50.0124 26.9048 50.8469 27.125 51.8768 27.125C53.0487 27.125 53.979 26.8764 54.668 26.3793C55.364 25.875 55.712 25.2713 55.712 24.5682C55.712 24 55.5131 23.5241 55.1154 23.1406C54.7177 22.75 54.1069 22.4588 53.283 22.267L50.5558 21.6278C49.0572 21.2727 47.9563 20.7223 47.2532 19.9766C46.5572 19.2237 46.2092 18.2827 46.2092 17.1534C46.2092 16.2301 46.4684 15.4134 46.9869 14.7031C47.5124 13.9929 48.2262 13.4354 49.1282 13.0305C50.0373 12.6257 51.0671 12.4233 52.2177 12.4233C53.837 12.4233 55.1083 12.7784 56.0316 13.4886C56.962 14.1989 57.6225 15.1364 58.0131 16.3011ZM62.0961 29V12.6364H64.6103V29H62.0961ZM63.3745 9.90909C62.8844 9.90909 62.4618 9.74219 62.1067 9.40838C61.7587 9.07457 61.5847 8.6733 61.5847 8.20455C61.5847 7.7358 61.7587 7.33452 62.1067 7.00071C62.4618 6.6669 62.8844 6.5 63.3745 6.5C63.8645 6.5 64.2836 6.6669 64.6316 7.00071C64.9867 7.33452 65.1642 7.7358 65.1642 8.20455C65.1642 8.6733 64.9867 9.07457 64.6316 9.40838C64.2836 9.74219 63.8645 9.90909 63.3745 9.90909ZM75.8629 29.3409C74.3288 29.3409 73.0078 28.9787 71.8999 28.2543C70.7919 27.5298 69.9396 26.532 69.343 25.2607C68.7464 23.9893 68.4482 22.5369 68.4482 20.9034C68.4482 19.2415 68.7536 17.7749 69.3643 16.5036C69.9822 15.2251 70.8416 14.2273 71.9425 13.5099C73.0504 12.7855 74.343 12.4233 75.8203 12.4233C76.9709 12.4233 78.0078 12.6364 78.9311 13.0625C79.8544 13.4886 80.6108 14.0852 81.2003 14.8523C81.7898 15.6193 82.1555 16.5142 82.2976 17.5369H79.7834C79.5916 16.7912 79.1655 16.1307 78.505 15.5554C77.8516 14.973 76.9709 14.6818 75.8629 14.6818C74.8828 14.6818 74.0234 14.9375 73.2848 15.4489C72.5533 15.9531 71.9815 16.6669 71.5696 17.5902C71.1648 18.5064 70.9624 19.5824 70.9624 20.8182C70.9624 22.0824 71.1612 23.1832 71.5589 24.1207C71.9638 25.0582 72.532 25.7862 73.2635 26.3047C74.0021 26.8232 74.8686 27.0824 75.8629 27.0824C76.5163 27.0824 77.1094 26.9688 77.642 26.7415C78.1747 26.5142 78.6257 26.1875 78.995 25.7614C79.3643 25.3352 79.6271 24.8239 79.7834 24.2273H82.2976C82.1555 25.1932 81.804 26.0632 81.2429 26.8374C80.6889 27.6044 79.9538 28.2152 79.0376 28.6697C78.1286 29.1172 77.0703 29.3409 75.8629 29.3409Z" fill="#32FF78"/>
<path d="M19.9432 52.5072V74.3254H17.3864L5.49716 57.1947H5.28409V74.3254H2.64205V52.5072H5.19886L17.1307 69.6805H17.3438V52.5072H19.9432ZM31.7498 74.6663C30.1731 74.6663 28.813 74.3183 27.6696 73.6223C26.5332 72.9192 25.6561 71.9391 25.0382 70.682C24.4274 69.4178 24.122 67.9476 24.122 66.2714C24.122 64.5953 24.4274 63.118 25.0382 61.8396C25.6561 60.5541 26.5154 59.5527 27.6163 58.8354C28.7243 58.1109 30.0169 57.7487 31.4941 57.7487C32.3464 57.7487 33.188 57.8908 34.019 58.1749C34.85 58.4589 35.6064 58.9206 36.2882 59.5598C36.97 60.1919 37.5133 61.03 37.9181 62.074C38.323 63.118 38.5254 64.4035 38.5254 65.9305V66.9959H25.9118V64.8226H35.9686C35.9686 63.8993 35.7839 63.0754 35.4146 62.351C35.0524 61.6266 34.5339 61.0548 33.8592 60.6358C33.1916 60.2168 32.4032 60.0072 31.4941 60.0072C30.4927 60.0072 29.6262 60.2558 28.8947 60.753C28.1703 61.243 27.6127 61.8822 27.2221 62.6706C26.8315 63.4589 26.6362 64.3041 26.6362 65.2061V66.655C26.6362 67.8908 26.8493 68.9384 27.2754 69.7977C27.7086 70.65 28.3088 71.2999 29.0758 71.7473C29.8429 72.1876 30.7342 72.4078 31.7498 72.4078C32.4103 72.4078 33.0069 72.3155 33.5396 72.1308C34.0794 71.9391 34.5446 71.655 34.9352 71.2785C35.3258 70.895 35.6277 70.4192 35.8407 69.851L38.2697 70.5328C38.014 71.3567 37.5843 72.0811 36.9806 72.7061C36.377 73.324 35.6312 73.807 34.7434 74.155C33.8556 74.4959 32.8578 74.6663 31.7498 74.6663ZM49.4664 57.9618V60.0925H40.9863V57.9618H49.4664ZM43.4579 54.0413H45.9721V69.6379C45.9721 70.3482 46.0751 70.8808 46.2811 71.2359C46.4941 71.5839 46.764 71.8183 47.0907 71.9391C47.4245 72.0527 47.7761 72.1095 48.1454 72.1095C48.4224 72.1095 48.6497 72.0953 48.8272 72.0669C49.0048 72.0314 49.1468 72.003 49.2534 71.9817L49.7647 74.2402C49.5943 74.3041 49.3564 74.368 49.051 74.432C48.7456 74.503 48.3585 74.5385 47.8897 74.5385C47.1795 74.5385 46.4835 74.3858 45.8017 74.0804C45.127 73.775 44.5659 73.3098 44.1184 72.6848C43.6781 72.0598 43.4579 71.2714 43.4579 70.3197V54.0413ZM56.9558 74.3254L51.97 57.9618H54.612L58.149 70.4902H58.3194L61.8137 57.9618H64.4984L67.9501 70.4476H68.1206L71.6575 57.9618H74.2995L69.3137 74.3254H66.8422L63.2626 61.7544H63.0069L59.4274 74.3254H56.9558ZM83.7145 74.6663C82.2372 74.6663 80.9411 74.3148 79.826 73.6116C78.718 72.9085 77.8516 71.9249 77.2266 70.6607C76.6087 69.3964 76.2997 67.9192 76.2997 66.2288C76.2997 64.5243 76.6087 63.0364 77.2266 61.7651C77.8516 60.4937 78.718 59.5065 79.826 58.8034C80.9411 58.1003 82.2372 57.7487 83.7145 57.7487C85.1918 57.7487 86.4844 58.1003 87.5923 58.8034C88.7074 59.5065 89.5739 60.4937 90.1918 61.7651C90.8168 63.0364 91.1293 64.5243 91.1293 66.2288C91.1293 67.9192 90.8168 69.3964 90.1918 70.6607C89.5739 71.9249 88.7074 72.9085 87.5923 73.6116C86.4844 74.3148 85.1918 74.6663 83.7145 74.6663ZM83.7145 72.4078C84.8366 72.4078 85.7599 72.1202 86.4844 71.5449C87.2088 70.9696 87.745 70.2132 88.093 69.2757C88.4411 68.3382 88.6151 67.3226 88.6151 66.2288C88.6151 65.1351 88.4411 64.1159 88.093 63.1713C87.745 62.2267 87.2088 61.4632 86.4844 60.8808C85.7599 60.2984 84.8366 60.0072 83.7145 60.0072C82.5923 60.0072 81.669 60.2984 80.9446 60.8808C80.2202 61.4632 79.6839 62.2267 79.3359 63.1713C78.9879 64.1159 78.8139 65.1351 78.8139 66.2288C78.8139 67.3226 78.9879 68.3382 79.3359 69.2757C79.6839 70.2132 80.2202 70.9696 80.9446 71.5449C81.669 72.1202 82.5923 72.4078 83.7145 72.4078ZM94.9672 74.3254V57.9618H97.3961V60.4334H97.5666C97.8649 59.6237 98.4047 58.9668 99.1859 58.4625C99.9672 57.9582 100.848 57.7061 101.828 57.7061C102.013 57.7061 102.243 57.7097 102.52 57.7168C102.797 57.7239 103.007 57.7345 103.149 57.7487V60.3055C103.064 60.2842 102.868 60.2523 102.563 60.2097C102.265 60.1599 101.949 60.1351 101.615 60.1351C100.819 60.1351 100.109 60.302 99.4842 60.6358C98.8663 60.9625 98.3762 61.417 98.014 61.9994C97.6589 62.5747 97.4814 63.2317 97.4814 63.9703V74.3254H94.9672ZM108.473 68.3595L108.43 65.2487H108.942L116.101 57.9618H119.212L111.584 65.6749H111.371L108.473 68.3595ZM106.129 74.3254V52.5072H108.643V74.3254H106.129ZM116.527 74.3254L110.135 66.2288L111.925 64.4817L119.723 74.3254H116.527Z" fill="#32FF78"/>
<path d="M154.5 29.4203L160.225 47.2957H178.752L163.763 58.3433L169.489 76.2188L154.5 65.1711L139.511 76.2188L145.237 58.3433L130.248 47.2957H148.775L154.5 29.4203Z" fill="#FBFF22"/>
</svg>
